
  <svg width="2400" height="750" viewBox="0 0 1600 500" xmlns="http://www.w3.org/2000/svg" fill="none">
    <defs>
      <linearGradient id="circGradH" x1="20%" y1="100%" x2="90%" y2="20%">
        <stop offset="0%" stop-color="#06B6D4" />
        <stop offset="50%" stop-color="#0EA5E9" />
        <stop offset="100%" stop-color="#10B981" />
      </linearGradient>
    </defs>

    <rect width="1600" height="500" fill="#0B0F19" />

    <g transform="translate(180, 110)">
      <!-- Mark scaled to 280x280 -->
      <g transform="scale(2.8)">
        <path
          d="M 85 42 L 50 18 L 19 42 L 19 70 L 48 70"
          stroke="#FFFFFF"
          stroke-width="5.5"
          stroke-linecap="round"
          stroke-linejoin="round"
        />
        <rect x="42.5" y="38.5" width="6" height="6" rx="0.8" fill="#FFFFFF" />
        <rect x="51.5" y="38.5" width="6" height="6" rx="0.8" fill="#FFFFFF" />
        <rect x="42.5" y="47.5" width="6" height="6" rx="0.8" fill="#FFFFFF" />
        <rect x="51.5" y="47.5" width="6" height="6" rx="0.8" fill="#FFFFFF" />

        <path
          d="M 29 77 L 55 77 L 76.5 51 L 78 51"
          stroke="url(#circGradH)"
          stroke-width="4.5"
          stroke-linecap="round"
          stroke-linejoin="round"
        />
        <circle cx="81.5" cy="51" r="4.2" stroke="url(#circGradH)" stroke-width="2.6" fill="none" />

        <path
          d="M 44 84 L 60 84 L 74.5 68 L 78 68"
          stroke="url(#circGradH)"
          stroke-width="4.5"
          stroke-linecap="round"
          stroke-linejoin="round"
        />
        <circle cx="81.5" cy="68" r="4.2" stroke="url(#circGradH)" stroke-width="2.6" fill="none" />

        <path
          d="M 60 91 L 68 91 L 76 82.5 L 78 82.5"
          stroke="url(#circGradH)"
          stroke-width="4.5"
          stroke-linecap="round"
          stroke-linejoin="round"
        />
        <circle cx="81.5" cy="82.5" r="4.2" stroke="url(#circGradH)" stroke-width="2.6" fill="none" />
      </g>

      <!-- Wordmark -->
      <text x="350" y="160" font-family="-apple-system, BlinkMacSystemFont, 'Segoe UI', Roboto, Helvetica, Arial, sans-serif" font-size="132" font-weight="800" letter-spacing="24" fill="#FFFFFF">NOVAND</text>
      
      
      <!-- Subtitle -->
      <text x="358" y="222" font-family="-apple-system, BlinkMacSystemFont, 'Segoe UI', Roboto, Helvetica, Arial, sans-serif" font-size="28" font-weight="600" letter-spacing="10" fill="rgba(255,255,255,0.7)">INTEGRATED SYSTEMS &amp; INFRASTRUCTURE</text>
      
    </g>
  </svg>